<svg width="24" height="24" viewBox="0 0 24 24" fill="none" xmlns="http://www.w3.org/2000/svg">
<path d="M8 6.13333V7.13333C8.55228 7.13333 9 6.68562 9 6.13333H8ZM16 6.13333H15C15 6.68562 15.4477 7.13333 16 7.13333V6.13333ZM9 6.13333C9 5.50741 9.50741 5 10.1333 5V3C8.40284 3 7 4.40284 7 6.13333H9ZM5 7.13333H8V5.13333H5V7.13333ZM4 8.13333C4 7.58105 4.44771 7.13333 5 7.13333V5.13333C3.34315 5.13333 2 6.47648 2 8.13333H4ZM4 18V8.13333H2V18H4ZM5 19C4.44772 19 4 18.5523 4 18H2C2 19.6569 3.34315 21 5 21V19ZM19 19H5V21H19V19ZM20 18C20 18.5523 19.5523 19 19 19V21C20.6569 21 22 19.6569 22 18H20ZM20 8.13333V18H22V8.13333H20ZM19 7.13333C19.5523 7.13333 20 7.58105 20 8.13333H22C22 6.47648 20.6569 5.13333 19 5.13333V7.13333ZM16 7.13333H19V5.13333H16V7.13333ZM13.8667 5C14.4926 5 15 5.50741 15 6.13333H17C17 4.40284 15.5972 3 13.8667 3V5ZM10.1333 5H13.8667V3H10.1333V5Z" fill="black"/>
<circle cx="12" cy="13" r="3" stroke="black" stroke-width="2" stroke-linecap="round" stroke-linejoin="round"/>
<path d="M6 9H7" stroke="black" stroke-width="2" stroke-linecap="round" stroke-linejoin="round"/>
</svg>
